<svg height="512" viewBox="0 0 48 60" width="512" xmlns="http://www.w3.org/2000/svg"><g id="Page-1" fill="none" fill-rule="evenodd"><g id="003---MRI-Scan" fill="rgb(0,0,0)" fill-rule="nonzero"><path id="Shape" d="m3 50h4v3c0 1.6568542 1.34314575 3 3 3h5v1c0 1.6568542 1.3431458 3 3 3h12c1.6568542 0 3-1.3431458 3-3v-1h5c1.6568542 0 3-1.3431458 3-3v-3h4c1.6568542 0 3-1.3431458 3-3v-1.627c-.0056696-.480075-.1781997-.9432194-.488-1.31l-6.748-7.788c7.5646156-8.8729597 6.8717971-22.1119124-1.5776384-30.14682768-8.4494355-8.03491525-21.7064775-8.06145786-30.1880193-.06044099-8.48154184 8.00101687-9.22736736 21.23708917-1.6983423 30.14026867l-6.812 7.856c-.3082819.367276-.48061836.8295473-.488 1.309v1.627c0 1.6568542 1.34314575 3 3 3zm12 4h-5c-.55228475 0-1-.4477153-1-1v-3h6zm16 3c0 .5522847-.4477153 1-1 1h-12c-.5522847 0-1-.4477153-1-1v-7h14zm8-4c0 .5522847-.4477153 1-1 1h-5v-4h6zm-34.89-30.94c-.0123945-8.7954314 5.73808576-16.5607088 14.1547269-19.11412201 8.4166411-2.5534132 17.5123272.70788257 22.3889045 8.02763401 4.8765772 7.3197514 4.3827165 16.9698114-1.2156314 23.753488l-6.725-7.849c2.0237168-3.5754478 1.6361036-8.0280298-.975-11.2l4.284-4.29c.3903819-.3904999.3903819-1.0235001 0-1.414-3.1840635-3.19427934-7.5118378-4.98485908-12.022-4.974-6.4864736-.00784204-12.4106391 3.68064288-15.26597823 9.5048544-2.85533913 5.8242114-2.14286341 12.7663319 1.83597823 17.8891456l-1.943 2.272c-2.91595555-3.5544505-4.5119415-8.0085127-4.517-12.606zm9.942-1.06h-5c.21509555-3.278345 1.5066118-6.3939434 3.674-8.863l3.543 3.538c-1.2470152 1.5180964-2.0182322 3.3704783-2.217 5.325zm1.235 5.881-3.393 3.967c-1.6749107-2.2927738-2.66303324-5.0147062-2.849-7.848h5.026c.1344637 1.3628243.5484106 2.6833014 1.216 3.879zm-1.148-16.156c2.4685232-2.16698304 5.583353-3.45847211 8.861-3.674v5c-1.9534771.1957451-3.8052855.9654183-5.322 2.212zm1.861 11.275c.009359-3.3573079 2.113969-6.3515994 5.2697209-7.4973893 3.1557518-1.1457899 6.6911857-.1992846 8.8523525 2.3699491 2.1611669 2.5692338 2.488228 6.2145316.8189266 9.1274402h-13.884c-.7014158-1.2157603-1.0662613-2.5964432-1.057-4zm9-14.951c3.279247.21090944 6.3962585 1.50216241 8.864 3.672l-3.54 3.545c-1.5163466-1.2489606-3.3692313-2.0198358-5.324-2.215zm-15.685 29.872c4.7-5.483 3-3.5 7.644-8.921h14.082l.011.014.068.079-.04-.047.115.134.009.01.048.057v.006l.009.011 13.548 15.736h-41.619c.088-.1 6.517-7.531 6.125-7.079zm-7.315 9.079h44v1c0 .5522847-.4477153 1-1 1h-42c-.55228475 0-1-.4477153-1-1z"/></g></g></svg>