<svg version="1.0" xmlns="http://www.w3.org/2000/svg" xmlns:xlink="http://www.w3.org/1999/xlink" x="0px" y="0px" width="64px" height="64px" viewBox="0 0 64 64" enable-background="new 0 0 64 64" xml:space="preserve" id="nectar-svg-animation-instance-3">
<path fill="none" stroke="#000000" stroke-width="2" stroke-miterlimit="10" d="M53,34A3,3 0,1,1 59,34A3,3 0,1,1 53,34" style="stroke-dasharray: 19px, 21px; stroke-dashoffset: 0px;"></path>
<path fill="none" stroke="#000000" stroke-width="2" stroke-miterlimit="10" d="M19,4A3,3 0,1,1 25,4A3,3 0,1,1 19,4" style="stroke-dasharray: 19px, 21px; stroke-dashoffset: 0px;"></path>
<path fill="none" stroke="#000000" stroke-width="2" stroke-miterlimit="10" d="M37,50A3,3 0,1,1 43,50A3,3 0,1,1 37,50" style="stroke-dasharray: 19px, 21px; stroke-dashoffset: 0px;"></path>
<path fill="none" stroke="#000000" stroke-width="2" stroke-miterlimit="10" d="M4,31A3,3 0,1,1 10,31A3,3 0,1,1 4,31" style="stroke-dasharray: 19px, 21px; stroke-dashoffset: 0px;"></path>
<path fill="none" stroke="#000000" stroke-width="2" stroke-miterlimit="10" d="M8,28L20,6" style="stroke-dasharray: 26px, 28px; stroke-dashoffset: 0px;"></path>
<path fill="none" stroke="#000000" stroke-width="2" stroke-miterlimit="10" d="M43,48L54,36" style="stroke-dasharray: 17px, 19px; stroke-dashoffset: 0px;"></path>
<path fill="none" stroke="#000000" stroke-width="2" stroke-miterlimit="10" width="62" height="6" d="M1 57 L63 57 L63 63 L1 63 Z" style="stroke-dasharray: 136px, 138px; stroke-dashoffset: 0px;"></path>
<path fill="none" stroke="#000000" stroke-width="2" stroke-miterlimit="10" d="M24,6L38,47" style="stroke-dasharray: 44px, 46px; stroke-dashoffset: 0px;"></path>
</svg>